<svg id="Слой_1" data-name="Слой 1" xmlns="http://www.w3.org/2000/svg" xmlns:xlink="http://www.w3.org/1999/xlink" viewBox="0 0 1215.61 1000.5"><defs><style>.cls-1{fill:none;}.cls-2{fill:#fffaf7;}.cls-3{clip-path:url(#clip-path);}.cls-4{fill:#979797;}.cls-5{clip-path:url(#clip-path-2);}</style><clipPath id="clip-path" transform="translate(310.81 452.48)"><polygon id="SVGID" class="cls-1" points="296.56 298.99 296.56 0 593.98 0 296.56 298.99"/></clipPath><clipPath id="clip-path-2" transform="translate(310.81 452.48)"><polygon id="SVGID-2" data-name="SVGID" class="cls-1" points="297.43 298.99 297.43 0 0 0 297.43 298.99"/></clipPath></defs><title>corner</title><polygon class="cls-2" points="607.37 751.47 607.37 452.48 904.79 452.48 607.37 751.47"/><polygon class="cls-2" points="608.24 751.47 608.24 452.48 310.81 452.48 608.24 751.47"/><g class="cls-3"><rect class="cls-4" x="1215.1" y="166.72" width="0.5" height="615.81"/><rect class="cls-4" x="1164.47" y="166.72" width="0.5" height="615.81"/><rect class="cls-4" x="1113.85" y="166.72" width="0.5" height="615.81"/><rect class="cls-4" x="1063.22" y="166.72" width="0.5" height="615.81"/><rect class="cls-4" x="1012.59" y="166.72" width="0.5" height="615.81"/><rect class="cls-4" x="961.96" y="166.72" width="0.5" height="615.81"/><rect class="cls-4" x="911.33" y="166.72" width="0.5" height="615.81"/><rect class="cls-4" x="860.7" y="166.72" width="0.5" height="615.81"/><rect class="cls-4" x="810.07" y="166.72" width="0.5" height="615.81"/><rect class="cls-4" x="759.44" y="166.72" width="0.5" height="615.81"/><rect class="cls-4" x="708.81" y="166.72" width="0.5" height="615.81"/><rect class="cls-4" x="658.18" y="166.72" width="0.5" height="615.81"/><rect class="cls-4" x="607.55" y="166.72" width="0.5" height="615.81"/><rect class="cls-4" x="556.92" y="166.72" width="0.5" height="615.81"/><rect class="cls-4" x="506.29" y="166.72" width="0.5" height="615.81"/><rect class="cls-4" x="455.66" y="166.72" width="0.5" height="615.81"/><rect class="cls-4" x="405.03" y="166.72" width="0.5" height="615.81"/><rect class="cls-4" x="354.41" y="166.72" width="0.5" height="615.81"/><rect class="cls-4" x="303.78" y="166.72" width="0.5" height="615.81"/><rect class="cls-4" x="253.15" y="166.72" width="0.5" height="615.81"/><rect class="cls-4" x="202.52" y="166.72" width="0.5" height="615.81"/><rect class="cls-4" x="202.77" y="1000" width="1012.59" height="0.5"/><rect class="cls-4" x="202.77" y="950" width="1012.59" height="0.5"/><rect class="cls-4" x="202.77" y="900" width="1012.59" height="0.5"/><rect class="cls-4" x="202.77" y="850" width="1012.59" height="0.5"/><rect class="cls-4" x="202.77" y="800" width="1012.59" height="0.5"/><rect class="cls-4" x="202.77" y="750" width="1012.59" height="0.5"/><rect class="cls-4" x="202.77" y="700" width="1012.59" height="0.5"/><rect class="cls-4" x="202.77" y="650" width="1012.59" height="0.5"/><rect class="cls-4" x="202.77" y="600" width="1012.59" height="0.5"/><rect class="cls-4" x="202.77" y="550" width="1012.59" height="0.5"/><rect class="cls-4" x="202.77" y="500" width="1012.59" height="0.5"/><rect class="cls-4" x="202.77" y="450" width="1012.59" height="0.5"/><rect class="cls-4" x="202.77" y="400" width="1012.59" height="0.5"/><rect class="cls-4" x="202.77" y="350" width="1012.59" height="0.5"/><rect class="cls-4" x="202.77" y="300" width="1012.59" height="0.5"/><rect class="cls-4" x="202.77" y="250" width="1012.59" height="0.5"/><rect class="cls-4" x="202.77" y="200" width="1012.59" height="0.5"/><rect class="cls-4" x="202.77" y="150" width="1012.59" height="0.5"/><rect class="cls-4" x="202.77" y="100" width="1012.59" height="0.5"/><rect class="cls-4" x="202.77" y="50" width="1012.59" height="0.5"/><rect class="cls-4" x="202.77" width="1012.59" height="0.5"/></g><g class="cls-5"><rect class="cls-4" y="166.72" width="0.5" height="615.81"/><rect class="cls-4" x="50.63" y="166.72" width="0.5" height="615.81"/><rect class="cls-4" x="101.26" y="166.72" width="0.5" height="615.81"/><rect class="cls-4" x="151.89" y="166.72" width="0.5" height="615.81"/><rect class="cls-4" x="202.52" y="166.72" width="0.5" height="615.81"/><rect class="cls-4" x="253.15" y="166.72" width="0.5" height="615.81"/><rect class="cls-4" x="303.78" y="166.72" width="0.5" height="615.81"/><rect class="cls-4" x="354.41" y="166.72" width="0.5" height="615.81"/><rect class="cls-4" x="405.03" y="166.72" width="0.5" height="615.81"/><rect class="cls-4" x="455.66" y="166.72" width="0.5" height="615.81"/><rect class="cls-4" x="506.29" y="166.72" width="0.5" height="615.81"/><rect class="cls-4" x="556.92" y="166.72" width="0.5" height="615.81"/><rect class="cls-4" x="607.55" y="166.72" width="0.5" height="615.81"/><rect class="cls-4" x="658.18" y="166.72" width="0.5" height="615.81"/><rect class="cls-4" x="708.81" y="166.72" width="0.5" height="615.81"/><rect class="cls-4" x="759.44" y="166.72" width="0.5" height="615.81"/><rect class="cls-4" x="810.07" y="166.72" width="0.5" height="615.81"/><rect class="cls-4" x="860.7" y="166.72" width="0.5" height="615.81"/><rect class="cls-4" x="911.33" y="166.72" width="0.5" height="615.81"/><rect class="cls-4" x="961.96" y="166.72" width="0.5" height="615.81"/><rect class="cls-4" x="1012.59" y="166.72" width="0.5" height="615.81"/><rect class="cls-4" x="0.25" y="1000" width="1012.59" height="0.5"/><rect class="cls-4" x="0.25" y="950" width="1012.59" height="0.5"/><rect class="cls-4" x="0.25" y="900" width="1012.59" height="0.5"/><rect class="cls-4" x="0.25" y="850" width="1012.59" height="0.5"/><rect class="cls-4" x="0.25" y="800" width="1012.59" height="0.5"/><rect class="cls-4" x="0.25" y="750" width="1012.59" height="0.5"/><rect class="cls-4" x="0.25" y="700" width="1012.59" height="0.5"/><rect class="cls-4" x="0.25" y="650" width="1012.59" height="0.5"/><rect class="cls-4" x="0.25" y="600" width="1012.59" height="0.5"/><rect class="cls-4" x="0.25" y="550" width="1012.59" height="0.5"/><rect class="cls-4" x="0.25" y="500" width="1012.59" height="0.5"/><rect class="cls-4" x="0.25" y="450" width="1012.59" height="0.5"/><rect class="cls-4" x="0.25" y="400" width="1012.59" height="0.5"/><rect class="cls-4" x="0.25" y="350" width="1012.59" height="0.5"/><rect class="cls-4" x="0.25" y="300" width="1012.59" height="0.5"/><rect class="cls-4" x="0.25" y="250" width="1012.59" height="0.5"/><rect class="cls-4" x="0.25" y="200" width="1012.59" height="0.5"/><rect class="cls-4" x="0.25" y="150" width="1012.59" height="0.5"/><rect class="cls-4" x="0.25" y="100" width="1012.59" height="0.5"/><rect class="cls-4" x="0.25" y="50" width="1012.59" height="0.5"/><rect class="cls-4" x="0.25" width="1012.59" height="0.5"/></g></svg>